<svg xmlns="http://www.w3.org/2000/svg" width="23" height="23" viewBox="0 0 23 23"><rect width="23" height="23" fill="none"/><g transform="translate(1.917 1.917)"><g transform="translate(2.875 2.875)"><circle cx="1.917" cy="1.917" r="1.917"/></g><path d="M19.25,12.542V4.712A2.711,2.711,0,0,0,14.621,2.8l-1.2,1.2a1.631,1.631,0,0,0-.489-.077,1.9,1.9,0,0,0-1.035.307l2.645,2.645a1.9,1.9,0,0,0,.307-1.035,2.073,2.073,0,0,0-.067-.489l1.2-1.2a.793.793,0,0,1,1.351.565v7.83H10.769a4.886,4.886,0,0,1-.786-.69L8.641,10.366a2.056,2.056,0,0,0-.661-.479,2.2,2.2,0,0,0-.958-.22,2.157,2.157,0,0,0-2.147,2.156v.719H2v5.75a1.922,1.922,0,0,0,1.917,1.917.961.961,0,0,0,.958.958H18.292a.961.961,0,0,0,.958-.958,1.922,1.922,0,0,0,1.917-1.917v-5.75Z" transform="translate(-2 -2)"/></g></svg>