<svg xmlns="http://www.w3.org/2000/svg" width="23" height="23" viewBox="0 0 23 23"><rect width="23" height="23" fill="none"/><g transform="translate(3.833 4.792)"><path d="M19.333,11.708a1.922,1.922,0,0,0-1.917-1.917V6.917A1.922,1.922,0,0,0,15.5,5H7.833A1.922,1.922,0,0,0,5.917,6.917V9.792A1.922,1.922,0,0,0,4,11.708V16.5H5.275l.642,1.917h.958L7.517,16.5h8.309l.633,1.917h.958l.642-1.917h1.275ZM15.5,9.792H12.625V6.917H15.5ZM7.833,6.917h2.875V9.792H7.833ZM5.917,11.708h11.5v2.875H5.917Z" transform="translate(-4 -5)"/></g></svg>